<svg xmlns="http://www.w3.org/2000/svg" xml:space="preserve" width="151.558" height="111.096"><path id="O" fill="#FFF" d="M85.823 48.816q0 1.944-1.08 3.564c-1.08 1.62-1.8 1.668-3.24 1.764h-6.984q-2.52-.143-3.528-1.908a7.6 7.6 0 0 1-1.008-3.852V5.76q0-2.23 1.08-3.996Q72.143 0 74.663 0h6.408q2.087.146 3.42 1.728 1.332 1.584 1.332 3.456zM73.079 50.4q.718 1.225 3.24 1.224h3.888q2.015 0 2.628-1.188.611-1.188.612-3.564v-39.6q0-2.376-.612-3.564-.613-1.188-2.628-1.188h-4.896q-1.224 0-2.088 1.26t-.864 3.42v39.672q0 2.305.72 3.528"/></svg>