<?xml version="1.0" encoding="utf-8"?>
<!-- Generator: Adobe Illustrator 15.1.0, SVG Export Plug-In . SVG Version: 6.00 Build 0)  -->
<!DOCTYPE svg PUBLIC "-//W3C//DTD SVG 1.1//EN" "http://www.w3.org/Graphics/SVG/1.1/DTD/svg11.dtd">
<svg version="1.1" xmlns="http://www.w3.org/2000/svg" xmlns:xlink="http://www.w3.org/1999/xlink" x="0px" y="0px"
     width="151.558px" height="111.096px" viewBox="0 0 151.558 111.096" enable-background="new 0 0 151.558 111.096"
     xml:space="preserve">
	<g id="Layer_1">
		<g id="A">
			<polygon id="a-right" fill="#FFFFFF"
					 points="9.864,5.112 14.04,32.904 14.472,35.712 17.424,54.144 20.016,54.144 11.376,0 9.864,0 	"/>
			<polygon id="a-left" fill="#FFFFFF"
					 points="2.592,54.144 0,54.144 8.28,0 9.864,0 9.864,5.112 5.616,32.904 5.256,35.712 	"/>
			<polygon id="a-bridge" fill="#FFFFFF" points="5.192,32.904 4.797,35.712 14.932,35.712 14.457,32.904 	"/>
		</g>

		<g id="L">
			<rect id="l-ascender" x="37.007" fill="#FFFFFF" width="2.376" height="54.144"/>
			<polyline id="l-horizontal" fill="#FFFFFF"
					  points="52.992,51.624 52.992,54.144 39.384,54.144 39.384,51.624 	"/>
		</g>

		<path id="O" fill="#FFFFFF" d="M85.823,48.816c0,1.296-0.36,2.484-1.08,3.564s-1.8,1.668-3.24,1.764h-6.984
			c-1.681-0.096-2.856-0.731-3.528-1.908c-0.673-1.175-1.008-2.459-1.008-3.852V5.76c0-1.487,0.36-2.819,1.08-3.996
			C71.783,0.588,72.982,0,74.663,0h6.408c1.392,0.097,2.531,0.673,3.42,1.728c0.888,1.056,1.332,2.208,1.332,3.456V48.816z
			 M73.079,50.4c0.479,0.817,1.559,1.224,3.24,1.224h3.888c1.343,0,2.22-0.396,2.628-1.188c0.407-0.792,0.612-1.98,0.612-3.564v-39.6
			c0-1.584-0.205-2.772-0.612-3.564C82.427,2.916,81.55,2.52,80.207,2.52h-4.896c-0.816,0-1.512,0.421-2.088,1.26
			c-0.576,0.84-0.864,1.98-0.864,3.42v39.672C72.359,48.409,72.599,49.584,73.079,50.4z"/>

		<g id="N">
			<polygon id="n-left" fill="#FFFFFF"
					 points="105.191,9.36 105.191,54.144 102.814,54.144 102.814,0 105.191,0 	"/>
			<polygon id="n-slant" fill="#FFFFFF"
					 points="105.191,0 105.479,0 116.279,45 116.279,54.144 116.062,54.144 105.191,9.36 	"/>
			<rect id="n-right" x="116.279" fill="#FFFFFF" width="2.376" height="54.144"/>
		</g>

		<g id="E">
			<rect id="e-vertical" x="135.646" fill="#FFFFFF" width="2.376" height="54.144"/>
			<rect id="e-bottom" x="138.022" y="51.624" fill="#FFFFFF" width="13.536" height="2.52"/>
			<rect id="e-middle" x="138.022" y="24.984" fill="#FFFFFF" width="12.024" height="2.52"/>
			<rect id="e-top" x="138.022" fill="#FFFFFF" width="13.536" height="2.52"/>
		</g>
	</g>

    <g id="discord">
			<path fill="#FFFFFF" d="M0.219,70.439h4.974c0.9,0,1.766,0.388,2.595,1.163c0.829,0.775,1.549,1.631,2.163,2.568
		c0.757,1.767,1.325,4.055,1.703,6.866s0.568,6.02,0.568,9.624v1.027c0,2.199-0.118,4.182-0.352,5.947
		c-0.235,1.766-0.514,3.325-0.838,4.676s-0.685,2.506-1.082,3.46c-0.397,0.955-0.757,1.722-1.081,2.297
		c-0.505,0.901-1.118,1.631-1.838,2.19c-0.721,0.559-1.459,0.838-2.216,0.838H0.219V70.439z M4.273,109.204
		c0.937-0.108,1.739-0.568,2.406-1.379c0.667-0.811,1.216-1.757,1.649-2.838c0.432-1.081,0.765-2.198,1-3.352
		c0.234-1.153,0.387-2.108,0.459-2.865c0.072-0.937,0.18-2.252,0.325-3.947c0.144-1.694,0.216-3.532,0.216-5.515
		c0-1.009-0.037-2.036-0.108-3.082c-0.073-1.045-0.162-2.045-0.271-3.001c-0.108-0.955-0.225-1.811-0.351-2.568
		c-0.127-0.757-0.262-1.333-0.406-1.73c-0.505-2.631-1.37-4.469-2.595-5.515c-0.36-0.324-0.729-0.585-1.108-0.784
		c-0.378-0.197-0.784-0.297-1.217-0.297H2.003v36.873H4.273z"/>
        <path fill="#FFFFFF" d="M24.98,70.439h1.946v40.657H24.98V70.439z"/>
        <path fill="#FFFFFF" d="M41.523,75.845v11.083c0,0.722,0.081,1.297,0.243,1.73s0.748,0.649,1.757,0.649h5.19
		c0.216,0,0.495,0.073,0.838,0.216c0.342,0.145,0.657,0.343,0.946,0.595c0.288,0.252,0.541,0.55,0.757,0.892
		c0.216,0.343,0.324,0.73,0.324,1.162v14.598c0,1.118-0.27,2.1-0.811,2.947c-0.541,0.847-1.442,1.307-2.704,1.378h-4.812
		c-1.046-0.072-1.902-0.504-2.568-1.297c-0.667-0.792-1-1.658-1-2.595v-8.975h1.784v7.461c0,1.189,0.153,2.073,0.459,2.649
		c0.306,0.577,0.964,0.865,1.974,0.865h3.676c0.829,0,1.406-0.315,1.73-0.946c0.324-0.63,0.487-1.487,0.487-2.568V93.471
		c0-0.757-0.163-1.325-0.487-1.703S48.299,91.2,47.254,91.2h-4.433c-0.649,0-1.325-0.234-2.027-0.703
		c-0.703-0.468-1.054-1.225-1.054-2.271V74.764c0-1.117,0.27-2.099,0.811-2.947c0.541-0.846,1.441-1.306,2.703-1.378h4.812
		c1.045,0.073,1.901,0.505,2.568,1.297c0.667,0.793,1,1.659,1,2.595v8.975h-1.784v-7.407c0-1.189-0.154-2.082-0.459-2.676
		c-0.307-0.595-0.965-0.892-1.973-0.892H43.74c-0.901,0-1.496,0.316-1.784,0.946C41.667,73.908,41.523,74.764,41.523,75.845z"/>
        <path fill="#FFFFFF" d="M66.771,108.284c0.396,0.613,1.225,0.919,2.487,0.919h2.812c1.009,0,1.667-0.297,1.973-0.892
		c0.306-0.595,0.46-1.487,0.46-2.676v-7.407h1.784v8.866c0,0.973-0.27,1.865-0.811,2.676c-0.541,0.811-1.352,1.253-2.433,1.325
		h-5.244c-1.262-0.072-2.145-0.549-2.649-1.433c-0.505-0.883-0.757-1.847-0.757-2.893V74.764c0-1.117,0.306-2.117,0.919-3
		c0.613-0.883,1.478-1.325,2.595-1.325h4.812c1.045,0.073,1.9,0.505,2.568,1.297c0.667,0.793,1,1.659,1,2.595v8.975h-1.784v-7.461
		c0-1.189-0.154-2.072-0.46-2.649c-0.307-0.576-0.964-0.865-1.973-0.865h-3.676c-0.613,0-1.136,0.316-1.568,0.946
		c-0.433,0.631-0.649,1.487-0.649,2.568v29.79C66.176,106.789,66.374,107.672,66.771,108.284z"/>
        <path fill="#FFFFFF" d="M100.939,107.095c0,0.973-0.27,1.865-0.811,2.676c-0.541,0.811-1.352,1.253-2.433,1.325h-5.244
		c-1.262-0.072-2.145-0.549-2.649-1.433c-0.505-0.883-0.757-1.847-0.757-2.893V74.764c0-1.117,0.271-2.117,0.811-3
		c0.541-0.883,1.441-1.325,2.703-1.325h4.812c1.045,0.073,1.9,0.505,2.568,1.297c0.667,0.793,1,1.659,1,2.595V107.095z
		 M91.37,108.284c0.36,0.613,1.171,0.919,2.433,0.919h2.919c1.009,0,1.667-0.297,1.973-0.892c0.306-0.595,0.46-1.487,0.46-2.676
		V75.899c0-1.189-0.154-2.082-0.46-2.676c-0.307-0.595-0.964-0.892-1.973-0.892h-3.676c-0.613,0-1.136,0.316-1.568,0.946
		c-0.433,0.631-0.649,1.487-0.649,2.568v29.79C90.829,106.789,91.009,107.672,91.37,108.284z"/>
        <path fill="#FFFFFF" d="M113.698,70.439h6.488c0.576,0,1.18,0.271,1.811,0.811c0.63,0.541,1.198,1.297,1.703,2.271
		c0.504,0.973,0.919,2.145,1.244,3.514c0.324,1.371,0.486,2.884,0.486,4.542c0,3.28-0.415,5.849-1.243,7.705
		c-0.83,1.856-1.767,3.037-2.812,3.541c0.721,1.154,1.252,2.262,1.595,3.325c0.342,1.063,0.694,2.352,1.054,3.865l2.595,11.083
		h-2.108l-1.784-8.326c-0.397-1.874-0.775-3.387-1.135-4.541c-0.361-1.153-0.712-2.072-1.054-2.757
		c-0.343-0.685-0.676-1.198-1-1.541c-0.324-0.342-0.648-0.622-0.973-0.838h-3.082v18.003h-1.784V70.439z M119.375,91.2
		c0.973,0,1.721-0.306,2.244-0.919c0.522-0.612,0.919-1.396,1.189-2.352c0.271-0.955,0.459-1.991,0.568-3.108
		c0.108-1.117,0.216-2.163,0.324-3.136c-0.073-1.082-0.181-2.171-0.324-3.271c-0.145-1.099-0.388-2.099-0.73-3
		c-0.343-0.901-0.811-1.64-1.406-2.217c-0.595-0.576-1.397-0.865-2.406-0.865h-3.352V91.2H119.375z"/>
        <path fill="#FFFFFF" d="M139.378,70.439h4.974c0.9,0,1.766,0.388,2.595,1.163c0.829,0.775,1.549,1.631,2.163,2.568
		c0.757,1.767,1.325,4.055,1.703,6.866s0.568,6.02,0.568,9.624v1.027c0,2.199-0.118,4.182-0.352,5.947
		c-0.235,1.766-0.514,3.325-0.838,4.676s-0.685,2.506-1.082,3.46c-0.397,0.955-0.757,1.722-1.081,2.297
		c-0.505,0.901-1.118,1.631-1.838,2.19c-0.721,0.559-1.459,0.838-2.216,0.838h-4.596V70.439z M143.433,109.204
		c0.937-0.108,1.739-0.568,2.406-1.379c0.667-0.811,1.216-1.757,1.649-2.838c0.432-1.081,0.765-2.198,1-3.352
		c0.234-1.153,0.387-2.108,0.459-2.865c0.072-0.937,0.18-2.252,0.325-3.947c0.144-1.694,0.216-3.532,0.216-5.515
		c0-1.009-0.037-2.036-0.108-3.082c-0.073-1.045-0.162-2.045-0.271-3.001c-0.108-0.955-0.225-1.811-0.351-2.568
		c-0.127-0.757-0.262-1.333-0.406-1.73c-0.505-2.631-1.37-4.469-2.595-5.515c-0.36-0.324-0.729-0.585-1.108-0.784
		c-0.378-0.197-0.784-0.297-1.217-0.297h-2.271v36.873H143.433z"/>
	</g>
</svg>
