<svg xmlns="http://www.w3.org/2000/svg" xml:space="preserve" width="151.558" height="111.096"><g id="Layer_1" fill="#FFF"><g id="A"><path id="a-right" d="m9.864 5.112 4.176 27.792.432 2.808 2.952 18.432h2.592L11.376 0H9.864z"/><path id="a-left" d="M2.592 54.144H0L8.28 0h1.584v5.112L5.616 32.904l-.36 2.808z"/><path id="a-bridge" d="m5.192 32.904-.395 2.808h10.135l-.475-2.808z"/></g><g id="L"><path id="l-ascender" d="M37.007 0h2.376v54.144h-2.376z"/><path id="l-horizontal" d="M52.992 51.624v2.52H39.384v-2.52"/></g><path id="O" d="M85.823 48.816q0 1.944-1.08 3.564c-1.08 1.62-1.8 1.668-3.24 1.764h-6.984q-2.52-.143-3.528-1.908a7.6 7.6 0 0 1-1.008-3.852V5.76q0-2.23 1.08-3.996Q72.143 0 74.663 0h6.408q2.087.146 3.42 1.728 1.332 1.584 1.332 3.456zM73.079 50.4q.718 1.225 3.24 1.224h3.888q2.015 0 2.628-1.188.611-1.188.612-3.564v-39.6q0-2.376-.612-3.564-.613-1.188-2.628-1.188h-4.896q-1.224 0-2.088 1.26t-.864 3.42v39.672q0 2.305.72 3.528"/><g id="N"><path id="n-left" d="M105.191 9.36v44.784h-2.377V0h2.377z"/><path id="n-slant" d="M105.191 0h.288l10.8 45v9.144h-.217L105.191 9.36z"/><path id="n-right" d="M116.279 0h2.376v54.144h-2.376z"/></g><g id="E"><path id="e-vertical" d="M135.646 0h2.376v54.144h-2.376z"/><path id="e-bottom" d="M138.022 51.624h13.536v2.52h-13.536z"/><path id="e-middle" d="M138.022 24.984h12.024v2.52h-12.024z"/><path id="e-top" d="M138.022 0h13.536v2.52h-13.536z"/></g></g><g id="discord" fill="#FFF"><path d="M.219 70.439h4.974q1.35 0 2.595 1.163a14 14 0 0 1 2.163 2.568q1.136 2.65 1.703 6.866c.567 4.216.568 6.02.568 9.624v1.027q0 3.299-.352 5.947-.352 2.65-.838 4.676c-.486 2.026-.685 2.506-1.082 3.46q-.595 1.434-1.081 2.297-.758 1.352-1.838 2.19t-2.216.838H.219zm4.054 38.765q1.406-.162 2.406-1.379t1.649-2.838a19.5 19.5 0 0 0 1-3.352q.351-1.73.459-2.865.108-1.405.325-3.947.216-2.54.216-5.515 0-1.513-.108-3.082a69 69 0 0 0-.271-3.001 50 50 0 0 0-.351-2.568q-.19-1.135-.406-1.73-.758-3.946-2.595-5.515a5.5 5.5 0 0 0-1.108-.784 2.6 2.6 0 0 0-1.217-.297H2.003v36.873zM24.98 70.439h1.946v40.657H24.98zM41.523 75.845v11.083q0 1.082.243 1.73c.243.648.748.649 1.757.649h5.19q.324 0 .838.216.513.217.946.595t.757.892.324 1.162v14.598q0 1.677-.811 2.947t-2.704 1.378h-4.812q-1.569-.108-2.568-1.297t-1-2.595v-8.975h1.784v7.461q0 1.784.459 2.649t1.974.865h3.676q1.244 0 1.73-.946t.487-2.568V93.471q0-1.136-.487-1.703c-.487-.567-1.007-.568-2.052-.568h-4.433q-.974 0-2.027-.703-1.054-.702-1.054-2.271V74.764q0-1.675.811-2.947.81-1.27 2.703-1.378h4.812q1.568.11 2.568 1.297 1 1.19 1 2.595v8.975H49.85v-7.407q0-1.784-.459-2.676-.46-.892-1.973-.892H43.74q-1.352 0-1.784.946-.433.946-.433 2.568M66.771 108.284q.594.92 2.487.919h2.812q1.514 0 1.973-.892t.46-2.676v-7.407h1.784v8.866a4.7 4.7 0 0 1-.811 2.676q-.812 1.217-2.433 1.325h-5.244q-1.893-.108-2.649-1.433a5.7 5.7 0 0 1-.757-2.893V74.764q0-1.676.919-3 .92-1.325 2.595-1.325h4.812q1.567.11 2.568 1.297 1 1.19 1 2.595v8.975h-1.784v-7.461q0-1.784-.46-2.649-.46-.864-1.973-.865h-3.676q-.92 0-1.568.946-.65.946-.649 2.568v29.79q-.001 1.731.594 2.649M100.939 107.095a4.7 4.7 0 0 1-.811 2.676q-.811 1.217-2.433 1.325h-5.244q-1.893-.108-2.649-1.433a5.7 5.7 0 0 1-.757-2.893V74.764q0-1.676.811-3 .81-1.325 2.703-1.325h4.812q1.567.11 2.568 1.297 1 1.19 1 2.595zm-9.569 1.189q.54.92 2.433.919h2.919q1.514 0 1.973-.892t.46-2.676V75.899q0-1.784-.46-2.676t-1.973-.892h-3.676q-.92 0-1.568.946-.65.947-.649 2.568v29.79q0 1.731.541 2.649M113.698 70.439h6.488q.864 0 1.811.811.945.81 1.703 2.271.756 1.46 1.244 3.514.486 2.056.486 4.542 0 4.92-1.243 7.705-1.245 2.785-2.812 3.541 1.081 1.73 1.595 3.325a53 53 0 0 1 1.054 3.865l2.595 11.083h-2.108l-1.784-8.326q-.595-2.81-1.135-4.541-.541-1.73-1.054-2.757-.514-1.027-1-1.541a5.7 5.7 0 0 0-.973-.838h-3.082v18.003h-1.784zm5.677 20.761q1.46 0 2.244-.919.784-.918 1.189-2.352.406-1.432.568-3.108t.324-3.136a53 53 0 0 0-.324-3.271 13.4 13.4 0 0 0-.73-3q-.514-1.352-1.406-2.217-.892-.864-2.406-.865h-3.352V91.2zM139.378 70.439h4.974q1.35 0 2.595 1.163a14 14 0 0 1 2.163 2.568q1.136 2.65 1.703 6.866c.567 4.216.568 6.02.568 9.624v1.027q0 3.299-.352 5.947-.352 2.65-.838 4.676c-.486 2.026-.685 2.506-1.082 3.46q-.595 1.434-1.081 2.297-.758 1.352-1.838 2.19t-2.216.838h-4.596zm4.055 38.765q1.406-.162 2.406-1.379t1.649-2.838a19.5 19.5 0 0 0 1-3.352q.351-1.73.459-2.865.108-1.405.325-3.947.216-2.54.216-5.515 0-1.513-.108-3.082a69 69 0 0 0-.271-3.001 50 50 0 0 0-.351-2.568q-.19-1.135-.406-1.73-.757-3.946-2.595-5.515a5.5 5.5 0 0 0-1.108-.784 2.6 2.6 0 0 0-1.217-.297h-2.271v36.873z"/></g></svg>