<?xml version="1.0" encoding="utf-8"?>
<!-- Generator: Adobe Illustrator 15.1.0, SVG Export Plug-In . SVG Version: 6.00 Build 0)  -->
<!DOCTYPE svg PUBLIC "-//W3C//DTD SVG 1.1//EN" "http://www.w3.org/Graphics/SVG/1.1/DTD/svg11.dtd">
<svg version="1.1" xmlns="http://www.w3.org/2000/svg" xmlns:xlink="http://www.w3.org/1999/xlink" x="0px" y="0px"
     width="151.558px" height="111.096px" viewBox="0 0 151.558 111.096" enable-background="new 0 0 151.558 111.096"
     xml:space="preserve">

    <g>
		<path id="O" fill="#FFFFFF" d="M85.823,48.816c0,1.296-0.36,2.484-1.08,3.564s-1.8,1.668-3.24,1.764h-6.984
			c-1.681-0.096-2.856-0.731-3.528-1.908c-0.673-1.175-1.008-2.459-1.008-3.852V5.76c0-1.487,0.36-2.819,1.08-3.996
			C71.783,0.588,72.982,0,74.663,0h6.408c1.392,0.097,2.531,0.673,3.42,1.728c0.888,1.056,1.332,2.208,1.332,3.456V48.816z
			 M73.079,50.4c0.479,0.817,1.559,1.224,3.24,1.224h3.888c1.343,0,2.22-0.396,2.628-1.188c0.407-0.792,0.612-1.98,0.612-3.564v-39.6
			c0-1.584-0.205-2.772-0.612-3.564C82.427,2.916,81.55,2.52,80.207,2.52h-4.896c-0.816,0-1.512,0.421-2.088,1.26
			c-0.576,0.84-0.864,1.98-0.864,3.42v39.672C72.359,48.409,72.599,49.584,73.079,50.4z"/>
    </g>

</svg>
