<svg xmlns="http://www.w3.org/2000/svg" width="446" height="24" fill="none"><path fill="#fff" d="M.499.608h16.448v3.456H4.499v5.984h11.52v3.264H4.499V20H17.17v3.456H.499zm72.316 0h4V20h11.616v3.456H72.815zm72.925 13.888L137.164.608h4.64l6.048 10.24 5.952-10.24h4.48l-8.544 13.888v8.96h-4zm69.582 1.344q0 1.312.448 2.24a4.2 4.2 0 0 0 1.248 1.536 5.8 5.8 0 0 0 1.824.864q1.056.256 2.272.256 1.311 0 2.24-.288.927-.32 1.504-.8.576-.48.832-1.088.255-.64.256-1.28 0-1.313-.608-1.92-.576-.64-1.28-.896a25 25 0 0 0-2.848-.832q-1.6-.416-3.968-1.056-1.473-.384-2.464-.992-.96-.64-1.536-1.408a5.1 5.1 0 0 1-.832-1.632 7 7 0 0 1-.224-1.76q0-1.728.704-2.976a6.5 6.5 0 0 1 1.92-2.112A8.1 8.1 0 0 1 217.498.48a11.4 11.4 0 0 1 3.04-.416q1.791 0 3.36.48 1.599.448 2.784 1.376a6.7 6.7 0 0 1 1.92 2.304q.704 1.344.704 3.136h-4q-.16-2.208-1.504-3.104-1.345-.928-3.424-.928-.705 0-1.44.16a4 4 0 0 0-1.344.48 2.9 2.9 0 0 0-1.024.896q-.384.576-.384 1.44 0 1.215.736 1.92.768.673 1.984 1.024.128.032.992.288a153 153 0 0 1 4.096 1.088q1.056.256 1.504.384a6.7 6.7 0 0 1 1.952.96 5.8 5.8 0 0 1 1.376 1.408q.576.768.832 1.664.288.896.288 1.792 0 1.92-.8 3.296a6.55 6.55 0 0 1-2.048 2.208 8.7 8.7 0 0 1-2.912 1.248 13.4 13.4 0 0 1-3.328.416q-1.952 0-3.68-.48t-3.008-1.472-2.048-2.528q-.768-1.568-.8-3.68zM285.608.608h4v22.848h-4zm60.81 0h4V13.92q0 1.152.096 2.336.128 1.185.64 2.144.544.928 1.6 1.536 1.088.608 3.04.608t3.008-.608q1.088-.607 1.6-1.536.544-.96.64-2.144.128-1.184.128-2.336V.608h4v14.624q0 2.208-.672 3.84a7.45 7.45 0 0 1-1.92 2.752q-1.216 1.088-2.944 1.632t-3.84.544-3.84-.544-2.976-1.632q-1.216-1.12-1.888-2.752t-.672-3.84zm75.446 0h5.632l6.304 17.888h.064L440.008.608h5.568v22.848h-3.808V5.824h-.064l-6.336 17.632h-3.296l-6.336-17.632h-.064v17.632h-3.808z"/></svg>